<?xml version="1.0" encoding="UTF-8"?>
<svg width="48px" height="48px" viewBox="0 0 48 48" version="1.1" xmlns="http://www.w3.org/2000/svg" xmlns:xlink="http://www.w3.org/1999/xlink">
    <!-- Generator: Sketch 55.2 (78181) - https://sketchapp.com -->
    <title>arrow-circle-left</title>
    <desc>Created with Sketch.</desc>
    <g id="main" stroke="none" stroke-width="1" fill="none" fill-rule="evenodd">
        <g id="vol-list" transform="translate(-49.000000, -48.000000)" stroke="#FFFFFF" stroke-width="2">
            <g id="nav" transform="translate(50.000000, 48.000000)">
                <g id="left">
                    <g id="back" transform="translate(0.000000, 1.000000)">
                        <path d="M23,46 C10.3173359,46 0,35.6831693 0,23.0011263 C0,10.3168307 10.3173359,0 23,0 C35.6826641,0 46,10.3168307 46,23.0011263 C46,35.6831693 35.6826641,46 23,46 L23,46 Z M13,22.9815388 C13,24.0134132 13.6797386,24.8003893 14.5139632,24.8003893 L21.6131907,24.8003893 C23.1200238,24.8003893 24.3487819,26.2230001 24.3487819,27.9703074 L24.3487819,32.5793462 C24.3487819,32.9453177 24.7290553,33.1461892 24.9643494,32.8737744 L32.6506239,23.9748899 C33.1164587,23.4355635 33.1164587,22.5632857 32.6506239,22.0267111 L24.9643494,13.1250749 C24.7266786,12.85266 24.3487819,13.0590349 24.3487819,13.419503 L24.3487819,18.0560585 C24.3487819,19.8033658 23.1200238,21.2259765 21.6131907,21.2259765 L14.5139632,21.2259765 C13.6797386,21.2259765 13,22.0129527 13,22.9815388 Z" id="arrow-circle-left" transform="translate(23.000000, 23.000000) scale(-1, 1) translate(-23.000000, -23.000000) "></path>
                    </g>
                </g>
            </g>
        </g>
    </g>
</svg>